<svg width="3431" height="608" viewBox="0 0 3431 608" fill="none" xmlns="http://www.w3.org/2000/svg">
<path d="M2891.57 129.103V258.207L2865.93 230.795C2793.42 152.979 2649.28 161.821 2593.57 246.712L2573.24 276.777V230.795V185.697H2524.6H2475.97L2474.2 351.056L2471.54 517.299L2447.67 519.952C2429.1 522.605 2421.14 529.679 2413.18 554.439C2399.92 596 2411.41 605.727 2471.54 605.727C2512.22 605.727 2523.72 602.189 2544.05 580.967C2567.05 557.976 2568.81 551.786 2571.47 464.243L2575 371.394L2593.57 399.691C2649.28 481.044 2789 491.655 2860.62 419.145L2891.57 388.195V424.451V459.821H2940.21C2977.35 459.821 2988.84 456.284 2988.84 446.557C2988.84 435.946 2995.92 436.83 3024.21 451.863C3107.34 495.192 3205.49 438.599 3216.1 341.329L3221.41 299.768L3239.98 317.454C3250.59 327.181 3273.58 341.329 3291.27 348.403C3331.06 365.204 3337.25 374.931 3319.56 389.964C3308.07 398.807 3300.99 398.807 3278 389.964C3234.67 372.278 3228.48 374.047 3209.03 404.997L3190.46 433.293L3228.48 450.979C3323.1 493.424 3430.98 453.632 3430.98 375.816C3430.98 336.023 3402.68 304.189 3350.51 287.388C3318.68 276.777 3307.18 268.818 3308.95 258.207C3312.49 242.29 3340.78 239.637 3375.27 251.133C3391.19 256.439 3397.38 252.017 3408.87 229.026C3429.21 191.002 3417.72 182.16 3344.32 178.623C3277.12 175.086 3233.79 194.54 3218.75 234.332L3210.8 256.439L3176.31 220.183C3147.13 188.35 3136.52 183.044 3097.61 179.507C3066.66 175.97 3043.67 179.507 3023.33 189.234C3008.3 197.192 2993.27 203.382 2991.5 203.382C2990.61 203.382 2988.84 157.4 2988.84 101.691V-0.000559926H2940.21H2891.57V129.103ZM2777.5 273.24C2791.65 284.735 2797.84 298.884 2797.84 321.875C2797.84 363.436 2777.5 383.774 2735.94 383.774C2675.81 383.774 2650.17 320.106 2692.61 278.545C2718.26 252.017 2749.21 250.249 2777.5 273.24ZM3093.19 271.471C3139.17 311.264 3107.34 389.08 3045.44 389.08C3022.45 389.08 2988.84 347.519 2988.84 319.222C2988.84 268.818 3055.16 238.753 3093.19 271.471Z" fill="black"/>
<path d="M1291.04 15.0303C1234.45 35.3686 1250.36 123.796 1310.49 123.796C1349.4 123.796 1376.81 71.6238 1354.71 38.9057C1348.52 30.0629 1313.15 7.95611 1306.96 9.72466C1305.19 9.72466 1298.11 12.3775 1291.04 15.0303Z" fill="black"/>
<path d="M2511.34 15.0303C2454.74 35.3686 2470.66 123.796 2530.79 123.796C2569.7 123.796 2597.11 71.6238 2575 38.9057C2568.81 30.0629 2533.44 7.95611 2527.25 9.72466C2525.49 9.72466 2518.41 12.3775 2511.34 15.0303Z" fill="black"/>
<path d="M135.294 60.1307C117.608 71.6262 0 250.249 0 266.166C0 284.736 285.62 598.653 308.611 605.727C317.454 608.38 329.834 608.38 336.908 604.843C363.436 593.347 632.255 291.81 634.908 270.588C636.677 255.555 620.76 223.721 583.62 168.012C499.614 42.4452 523.49 53.0565 320.991 53.0565C224.605 53.0565 141.484 56.5936 135.294 60.1307ZM247.597 91.9645C247.597 93.733 231.68 129.104 212.226 171.549L176.855 247.597H114.956C81.3531 247.597 53.0564 244.944 53.0564 242.291C53.0564 236.101 101.691 164.475 135.294 121.146C158.285 91.0802 164.475 88.4274 204.267 88.4274C228.142 88.4274 247.597 90.196 247.597 91.9645ZM380.237 159.169C399.692 198.077 415.608 233.448 415.608 238.754C415.608 244.059 378.469 247.597 318.338 247.597C265.282 247.597 221.068 245.828 221.068 243.175C221.068 240.522 237.869 205.151 258.208 163.591C291.81 96.3859 298 88.4274 320.107 88.4274C342.214 88.4274 348.404 96.3859 380.237 159.169ZM533.217 161.822C560.629 201.614 583.62 237.87 583.62 241.407C583.62 244.944 556.208 247.597 522.605 247.597H462.475L429.757 176.855C412.071 138.831 397.923 102.576 397.923 97.2701C397.923 92.8488 417.377 88.4274 440.368 88.4274H482.813L533.217 161.822ZM219.3 395.27C244.944 456.285 264.398 507.573 263.513 509.341C259.976 511.994 67.2048 301.537 63.6677 290.926C61.8991 286.505 85.7745 282.968 116.724 282.968H174.202L219.3 395.27ZM421.798 293.579C358.131 451.864 322.76 529.68 317.454 524.374C308.611 514.647 221.068 305.074 221.068 292.695C221.068 286.505 254.671 282.968 323.644 282.968C402.344 282.968 425.335 285.62 421.798 293.579ZM562.398 310.38C508.457 374.048 385.543 503.152 382.006 499.614C379.353 497.846 392.617 460.706 411.187 418.261C429.757 375.816 450.095 327.181 457.169 311.264C468.665 283.852 469.549 282.968 527.027 282.968H585.389L562.398 310.38Z" fill="black"/>
<path d="M898.423 195.425C879.853 210.457 875.432 211.342 875.432 199.846C875.432 188.35 864.82 185.698 826.797 185.698H778.162V322.76V459.822H826.797H875.432V366.974C875.432 278.546 876.316 274.125 897.539 259.977C917.877 246.712 921.414 246.712 941.752 259.977C962.975 274.125 963.859 278.546 963.859 366.974V459.822H1012.49H1061.13V373.163C1061.13 275.893 1069.97 253.787 1109.76 253.787C1149.56 253.787 1158.4 275.893 1158.4 373.163V459.822H1255.67H1352.94V322.76V185.698H1304.3H1255.67L1254.78 231.68C1253.9 279.431 1253.02 280.315 1243.29 236.101C1236.22 205.152 1191.12 176.855 1148.67 176.855C1129.22 176.855 1103.57 185.698 1083.24 199.846C1064.67 212.226 1046.98 218.416 1044.33 214.879C1016.92 175.086 937.331 164.475 898.423 195.425Z" fill="black"/>
<path d="M1490.88 195.422C1472.31 210.454 1467.89 211.339 1467.89 199.843C1467.89 188.348 1457.28 185.695 1419.26 185.695H1370.62V322.757V459.819H1419.26H1467.89V372.276C1467.89 287.386 1468.78 283.849 1490.88 266.164C1520.06 243.172 1534.21 243.172 1556.32 265.279C1571.35 280.312 1574 294.46 1574 371.392V459.819H1622.64H1671.27V423.564V386.425L1690.73 411.184C1712.84 440.365 1771.2 467.778 1808.34 468.662C1849.9 468.662 1898.53 451.861 1927.71 427.986L1954.24 404.994V432.407C1954.24 459.819 1955.13 459.819 1998.46 459.819H2042.67V389.962C2042.67 351.054 2046.21 309.493 2051.51 297.113C2063.01 265.279 2098.38 250.247 2131.98 262.626C2151.44 269.701 2157.63 269.701 2158.51 262.626C2158.51 256.437 2163.82 262.626 2169.12 275.006C2185.92 312.146 2203.61 328.947 2243.4 346.632C2288.5 366.086 2294.69 374.929 2276.12 389.962C2264.62 398.805 2257.55 398.805 2234.56 389.962C2191.23 372.276 2185.04 374.045 2165.58 404.994L2147.01 433.291L2185.04 450.977C2279.65 493.422 2387.54 453.629 2387.54 375.813C2387.54 336.021 2359.24 304.187 2307.07 287.386C2275.23 276.775 2263.74 268.816 2265.51 258.205C2269.04 242.288 2297.34 239.635 2331.83 251.131C2347.74 256.437 2353.93 252.015 2365.43 229.024C2384.88 191.885 2374.27 183.042 2303.53 178.621C2257.55 175.083 2240.75 178.621 2215.99 192.769C2194.76 205.149 2186.81 206.917 2189.46 198.959C2200.07 171.546 2091.3 172.431 2068.31 199.843C2055.05 215.76 2042.67 215.76 2042.67 198.959C2042.67 189.232 2032.06 185.695 1998.46 185.695H1954.24V222.834V260.858L1930.37 230.793C1902.95 195.422 1862.28 176.852 1813.64 176.852C1765.89 176.852 1734.06 190.116 1697.8 225.487L1666.85 256.437L1655.36 231.677C1633.25 181.273 1535.98 160.051 1490.88 195.422ZM1855.2 262.626L1867.58 282.965H1813.64C1757.93 282.965 1749.98 276.775 1773.85 252.015C1794.19 232.561 1838.4 237.867 1855.2 262.626ZM1954.24 362.549C1954.24 392.615 1947.17 394.383 1909.14 374.929C1884.38 362.549 1880.85 362.549 1866.7 374.929C1835.75 403.226 1759.7 383.772 1759.7 347.517C1759.7 338.674 1781.81 336.021 1856.97 336.021H1954.24V362.549Z" fill="black"/>
</svg>
