<?xml version="1.0" standalone="no"?>
<!DOCTYPE svg PUBLIC "-//W3C//DTD SVG 20010904//EN"
 "http://www.w3.org/TR/2001/REC-SVG-20010904/DTD/svg10.dtd">
<svg version="1.0" xmlns="http://www.w3.org/2000/svg"
 width="500.000000pt" height="500.000000pt" viewBox="0 0 500.000000 500.000000"
 preserveAspectRatio="xMidYMid meet">

<g transform="translate(0.000000,500.000000) scale(0.100000,-0.100000)"
fill="#000000" stroke="none">
<path d="M3770 2724 l0 -146 -29 31 c-82 88 -245 78 -308 -18 l-23 -34 0 52 0
51 -55 0 -55 0 -2 -187 -3 -188 -27 -3 c-21 -3 -30 -11 -39 -39 -15 -47 -2
-58 66 -58 46 0 59 4 82 28 26 26 28 33 31 132 l4 105 21 -32 c63 -92 221
-104 302 -22 l35 35 0 -41 0 -40 55 0 c42 0 55 4 55 15 0 12 8 11 40 -6 94
-49 205 15 217 125 l6 47 21 -20 c12 -11 38 -27 58 -35 45 -19 52 -30 32 -47
-13 -10 -21 -10 -47 0 -49 20 -56 18 -78 -17 l-21 -32 43 -20 c107 -48 229 -3
229 85 0 45 -32 81 -91 100 -36 12 -49 21 -47 33 4 18 36 21 75 8 18 -6 25 -1
38 25 23 43 10 53 -73 57 -76 4 -125 -18 -142 -63 l-9 -25 -39 41 c-33 36 -45
42 -89 46 -35 4 -61 0 -84 -11 -17 -9 -34 -16 -36 -16 -1 0 -3 52 -3 115 l0
115 -55 0 -55 0 0 -146z m-129 -163 c16 -13 23 -29 23 -55 0 -47 -23 -70 -70
-70 -68 0 -97 72 -49 119 29 30 64 32 96 6z m357 2 c52 -45 16 -133 -54 -133
-26 0 -64 47 -64 79 0 57 75 91 118 54z"/>
<path d="M1960 2853 c-64 -23 -46 -123 22 -123 44 0 75 59 50 96 -7 10 -47 35
-54 33 -2 0 -10 -3 -18 -6z"/>
<path d="M3340 2853 c-64 -23 -46 -123 22 -123 44 0 75 59 50 96 -7 10 -47 35
-54 33 -2 0 -10 -3 -18 -6z"/>
<path d="M653 2802 c-20 -13 -153 -215 -153 -233 0 -21 323 -376 349 -384 10
-3 24 -3 32 1 30 13 334 354 337 378 2 17 -16 53 -58 116 -95 142 -68 130
-297 130 -109 0 -203 -4 -210 -8z m127 -36 c0 -2 -18 -42 -40 -90 l-40 -86
-70 0 c-38 0 -70 3 -70 6 0 7 55 88 93 137 26 34 33 37 78 37 27 0 49 -2 49
-4z m150 -76 c22 -44 40 -84 40 -90 0 -6 -42 -10 -110 -10 -60 0 -110 2 -110
5 0 3 19 43 42 90 38 76 45 85 70 85 25 0 32 -9 68 -80z m173 -3 c31 -45 57
-86 57 -90 0 -4 -31 -7 -69 -7 l-68 0 -37 80 c-20 43 -36 84 -36 90 0 5 22 10
48 10 l48 0 57 -83z m-355 -264 c29 -69 51 -127 50 -129 -4 -3 -222 235 -226
247 -2 5 25 9 60 9 l65 0 51 -127z m229 115 c-72 -179 -112 -267 -118 -261
-10 11 -109 248 -109 262 0 7 38 11 116 11 89 0 115 -3 111 -12z m159 -19
c-61 -72 -200 -218 -204 -214 -3 2 12 44 33 92 21 48 44 103 52 121 13 31 14
32 79 32 l66 0 -26 -31z"/>
<path d="M1516 2649 c-21 -17 -26 -18 -26 -5 0 13 -12 16 -55 16 l-55 0 0
-155 0 -155 55 0 55 0 0 105 c0 100 1 105 25 121 23 15 27 15 50 0 24 -16 25
-21 25 -121 l0 -105 55 0 55 0 0 98 c0 110 10 135 55 135 45 0 55 -25 55 -135
l0 -98 110 0 110 0 0 155 0 155 -55 0 -55 0 -1 -52 c-1 -54 -2 -55 -13 -5 -8
35 -59 67 -107 67 -22 0 -51 -10 -74 -26 -21 -14 -41 -21 -44 -17 -31 45 -121
57 -165 22z"/>
<path d="M2186 2649 c-21 -17 -26 -18 -26 -5 0 13 -12 16 -55 16 l-55 0 0
-155 0 -155 55 0 55 0 0 99 c0 96 1 100 26 120 33 26 49 26 74 1 17 -17 20
-33 20 -120 l0 -100 55 0 55 0 0 41 0 42 22 -28 c25 -33 91 -64 133 -65 47 0
102 19 135 46 l30 26 0 -31 c0 -31 1 -31 50 -31 l50 0 0 79 c0 44 4 91 10 105
13 36 53 53 91 39 22 -8 29 -8 30 0 0 7 6 0 12 -14 19 -42 39 -61 84 -81 51
-22 58 -32 37 -49 -13 -10 -21 -10 -47 0 -49 20 -56 18 -78 -17 l-21 -32 43
-20 c107 -48 229 -3 229 85 0 45 -32 81 -91 100 -36 12 -49 21 -47 33 4 18 36
21 75 8 18 -6 25 -1 38 25 22 42 10 52 -70 57 -52 4 -71 0 -99 -16 -24 -14
-33 -16 -30 -7 12 31 -111 30 -137 -1 -15 -18 -29 -18 -29 1 0 11 -12 15 -50
15 l-50 0 0 -42 0 -43 -27 34 c-31 40 -77 61 -132 61 -54 0 -90 -15 -131 -55
l-35 -35 -13 28 c-25 57 -135 81 -186 41z m412 -76 l14 -23 -61 0 c-63 0 -72
7 -45 35 23 22 73 16 92 -12z m112 -113 c0 -34 -8 -36 -51 -14 -28 14 -32 14
-48 0 -35 -32 -121 -10 -121 31 0 10 25 13 110 13 l110 0 0 -30z"/>
</g>
</svg>
